# xmcd
#
# Track frame offsets: 
#        150
#        12448
#        30835
#        49303
#        59407
#        83274
#        94470
#        105968
#        122527
#        140250
#        160066
#        174001
#        191875
#        213125
#        234137
#        244250
#        261606
#        280122
#        294705
#        309861
#
# Disc length: 4339 seconds
#
# Revision: 0
# Processed by: cddbd v1.5.2PL0 Copyright (c) Steve Scherf et al.
# Submitted via: ExactAudioCopy v0.99pb3
#
DISCID=0510f114
DTITLE=Luu Hong - Dem da vu thu 8
DYEAR=1900
DGENRE=
TTITLE0=Mua tinh yeu
TTITLE1=Nguyen cau cho nguoi
TTITLE2=Tim vet chan xua
TTITLE3=Tinh ngheo
TTITLE4=Bai ca cho anh
TTITLE5=Pho xua
TTITLE6=Haunted Guitar
TTITLE7=The Merry Widow
TTITLE8=Noi buon gac tro
TTITLE9=Chuyen buon tinh yeu
TTITLE10=Vi sao em ra di
TTITLE11=Xa coi thien duong
TTITLE12=Loi dan do
TTITLE13=Bai ca cho em
TTITLE14=Dong doi
TTITLE15=Tinh nghia doi ta the thoi
TTITLE16=Tien nhau lan cuoi
TTITLE17=Limbo Rock
TTITLE18=Khi tuyet roi
TTITLE19=I saw her standing
EXTD=
EXTT0=
EXTT1=
EXTT2=
EXTT3=
EXTT4=
EXTT5=
EXTT6=
EXTT7=
EXTT8=
EXTT9=
EXTT10=
EXTT11=
EXTT12=
EXTT13=
EXTT14=
EXTT15=
EXTT16=
EXTT17=
EXTT18=
EXTT19=
PLAYORDER=
